<mxfile host="app.diagrams.net" modified="2024-03-31T16:06:54.606Z" agent="Mozilla/5.0 (Windows NT 10.0; Win64; x64) AppleWebKit/537.36 (KHTML, like Gecko) Chrome/123.0.0.0 Safari/537.36" etag="xxlvQsMxQeZBmgP7FDH1" version="24.2.1" type="github">
  <diagram id="C5RBs43oDa-KdzZeNtuy" name="Page-1">
    <mxGraphModel dx="1235" dy="736" grid="1" gridSize="10" guides="1" tooltips="1" connect="1" arrows="1" fold="1" page="1" pageScale="1" pageWidth="1169" pageHeight="827" math="0" shadow="0">
      <root>
        <mxCell id="WIyWlLk6GJQsqaUBKTNV-0" />
        <mxCell id="WIyWlLk6GJQsqaUBKTNV-1" parent="WIyWlLk6GJQsqaUBKTNV-0" />
        <mxCell id="MEUzlZL97q4z7wuGD6B6-51" value="" style="group" vertex="1" connectable="0" parent="WIyWlLk6GJQsqaUBKTNV-1">
          <mxGeometry x="30" y="490" width="340" height="222.5" as="geometry" />
        </mxCell>
        <mxCell id="MEUzlZL97q4z7wuGD6B6-3" value="Sucursal" style="rounded=0;whiteSpace=wrap;html=1;" vertex="1" parent="MEUzlZL97q4z7wuGD6B6-51">
          <mxGeometry x="220" y="32.5" width="120" height="60" as="geometry" />
        </mxCell>
        <mxCell id="MEUzlZL97q4z7wuGD6B6-43" value="codigo interno" style="ellipse;whiteSpace=wrap;html=1;" vertex="1" parent="MEUzlZL97q4z7wuGD6B6-51">
          <mxGeometry x="220" y="172.5" width="90" height="50" as="geometry" />
        </mxCell>
        <mxCell id="MEUzlZL97q4z7wuGD6B6-44" value="" style="endArrow=none;html=1;rounded=0;entryX=0.5;entryY=0;entryDx=0;entryDy=0;exitX=0;exitY=1;exitDx=0;exitDy=0;" edge="1" target="MEUzlZL97q4z7wuGD6B6-43" parent="MEUzlZL97q4z7wuGD6B6-51" source="MEUzlZL97q4z7wuGD6B6-3">
          <mxGeometry width="50" height="50" relative="1" as="geometry">
            <mxPoint x="30" y="182.5" as="sourcePoint" />
            <mxPoint x="166" y="97.5" as="targetPoint" />
          </mxGeometry>
        </mxCell>
        <mxCell id="MEUzlZL97q4z7wuGD6B6-45" value="nombre de la sucursal" style="ellipse;whiteSpace=wrap;html=1;" vertex="1" parent="MEUzlZL97q4z7wuGD6B6-51">
          <mxGeometry x="100" y="162.5" width="90" height="50" as="geometry" />
        </mxCell>
        <mxCell id="MEUzlZL97q4z7wuGD6B6-46" value="" style="endArrow=none;html=1;rounded=0;entryX=0.5;entryY=0;entryDx=0;entryDy=0;exitX=0;exitY=0.75;exitDx=0;exitDy=0;" edge="1" target="MEUzlZL97q4z7wuGD6B6-45" parent="MEUzlZL97q4z7wuGD6B6-51" source="MEUzlZL97q4z7wuGD6B6-3">
          <mxGeometry width="50" height="50" relative="1" as="geometry">
            <mxPoint x="100" y="82.5" as="sourcePoint" />
            <mxPoint x="46" y="87.5" as="targetPoint" />
          </mxGeometry>
        </mxCell>
        <mxCell id="MEUzlZL97q4z7wuGD6B6-47" value="ubicacion" style="ellipse;whiteSpace=wrap;html=1;" vertex="1" parent="MEUzlZL97q4z7wuGD6B6-51">
          <mxGeometry x="40" y="97.5" width="90" height="50" as="geometry" />
        </mxCell>
        <mxCell id="MEUzlZL97q4z7wuGD6B6-48" value="" style="endArrow=none;html=1;rounded=0;entryX=0.5;entryY=0;entryDx=0;entryDy=0;exitX=0;exitY=0.5;exitDx=0;exitDy=0;" edge="1" target="MEUzlZL97q4z7wuGD6B6-47" parent="MEUzlZL97q4z7wuGD6B6-51" source="MEUzlZL97q4z7wuGD6B6-3">
          <mxGeometry width="50" height="50" relative="1" as="geometry">
            <mxPoint x="160" y="12.5" as="sourcePoint" />
            <mxPoint x="-14" y="22.5" as="targetPoint" />
          </mxGeometry>
        </mxCell>
        <mxCell id="MEUzlZL97q4z7wuGD6B6-49" value="fecha de inauguracion" style="ellipse;whiteSpace=wrap;html=1;" vertex="1" parent="MEUzlZL97q4z7wuGD6B6-51">
          <mxGeometry width="90" height="50" as="geometry" />
        </mxCell>
        <mxCell id="MEUzlZL97q4z7wuGD6B6-50" value="" style="endArrow=none;html=1;rounded=0;entryX=1;entryY=0.5;entryDx=0;entryDy=0;exitX=0;exitY=0.25;exitDx=0;exitDy=0;" edge="1" target="MEUzlZL97q4z7wuGD6B6-49" parent="MEUzlZL97q4z7wuGD6B6-51" source="MEUzlZL97q4z7wuGD6B6-3">
          <mxGeometry width="50" height="50" relative="1" as="geometry">
            <mxPoint x="180" y="-35" as="sourcePoint" />
            <mxPoint x="-54" y="-75" as="targetPoint" />
          </mxGeometry>
        </mxCell>
        <mxCell id="MEUzlZL97q4z7wuGD6B6-52" value="" style="group" vertex="1" connectable="0" parent="WIyWlLk6GJQsqaUBKTNV-1">
          <mxGeometry x="720" y="490" width="315" height="290" as="geometry" />
        </mxCell>
        <mxCell id="MEUzlZL97q4z7wuGD6B6-4" value="cuenta" style="rounded=0;whiteSpace=wrap;html=1;" vertex="1" parent="MEUzlZL97q4z7wuGD6B6-52">
          <mxGeometry y="90" width="120" height="60" as="geometry" />
        </mxCell>
        <mxCell id="MEUzlZL97q4z7wuGD6B6-30" value="codigo interno" style="ellipse;whiteSpace=wrap;html=1;" vertex="1" parent="MEUzlZL97q4z7wuGD6B6-52">
          <mxGeometry x="225" y="70" width="90" height="50" as="geometry" />
        </mxCell>
        <mxCell id="MEUzlZL97q4z7wuGD6B6-31" value="" style="endArrow=none;html=1;rounded=0;entryX=0;entryY=0.5;entryDx=0;entryDy=0;exitX=1;exitY=0.5;exitDx=0;exitDy=0;" edge="1" target="MEUzlZL97q4z7wuGD6B6-30" parent="MEUzlZL97q4z7wuGD6B6-52">
          <mxGeometry width="50" height="50" relative="1" as="geometry">
            <mxPoint x="120" y="110" as="sourcePoint" />
            <mxPoint x="256" y="25" as="targetPoint" />
          </mxGeometry>
        </mxCell>
        <mxCell id="MEUzlZL97q4z7wuGD6B6-33" value="nombre de la cuenta" style="ellipse;whiteSpace=wrap;html=1;" vertex="1" parent="MEUzlZL97q4z7wuGD6B6-52">
          <mxGeometry x="225" y="160" width="90" height="50" as="geometry" />
        </mxCell>
        <mxCell id="MEUzlZL97q4z7wuGD6B6-34" value="" style="endArrow=none;html=1;rounded=0;entryX=0;entryY=0.5;entryDx=0;entryDy=0;exitX=1;exitY=1;exitDx=0;exitDy=0;" edge="1" target="MEUzlZL97q4z7wuGD6B6-33" parent="MEUzlZL97q4z7wuGD6B6-52" source="MEUzlZL97q4z7wuGD6B6-4">
          <mxGeometry width="50" height="50" relative="1" as="geometry">
            <mxPoint x="120" y="200" as="sourcePoint" />
            <mxPoint x="256" y="115" as="targetPoint" />
          </mxGeometry>
        </mxCell>
        <mxCell id="MEUzlZL97q4z7wuGD6B6-35" value="tipo de cuenta" style="ellipse;whiteSpace=wrap;html=1;" vertex="1" parent="MEUzlZL97q4z7wuGD6B6-52">
          <mxGeometry x="155" y="210" width="90" height="50" as="geometry" />
        </mxCell>
        <mxCell id="MEUzlZL97q4z7wuGD6B6-36" value="" style="endArrow=none;html=1;rounded=0;entryX=0;entryY=0.5;entryDx=0;entryDy=0;exitX=0.75;exitY=1;exitDx=0;exitDy=0;" edge="1" target="MEUzlZL97q4z7wuGD6B6-35" parent="MEUzlZL97q4z7wuGD6B6-52" source="MEUzlZL97q4z7wuGD6B6-4">
          <mxGeometry width="50" height="50" relative="1" as="geometry">
            <mxPoint x="50" y="200" as="sourcePoint" />
            <mxPoint x="186" y="165" as="targetPoint" />
          </mxGeometry>
        </mxCell>
        <mxCell id="MEUzlZL97q4z7wuGD6B6-38" value="fecha de creacion" style="ellipse;whiteSpace=wrap;html=1;" vertex="1" parent="MEUzlZL97q4z7wuGD6B6-52">
          <mxGeometry x="35" y="240" width="90" height="50" as="geometry" />
        </mxCell>
        <mxCell id="MEUzlZL97q4z7wuGD6B6-39" value="" style="endArrow=none;html=1;rounded=0;entryX=0;entryY=0.5;entryDx=0;entryDy=0;exitX=0.25;exitY=1;exitDx=0;exitDy=0;" edge="1" target="MEUzlZL97q4z7wuGD6B6-38" parent="MEUzlZL97q4z7wuGD6B6-52" source="MEUzlZL97q4z7wuGD6B6-4">
          <mxGeometry width="50" height="50" relative="1" as="geometry">
            <mxPoint x="-30" y="180" as="sourcePoint" />
            <mxPoint x="66" y="195" as="targetPoint" />
          </mxGeometry>
        </mxCell>
        <mxCell id="MEUzlZL97q4z7wuGD6B6-41" value="monto" style="ellipse;whiteSpace=wrap;html=1;" vertex="1" parent="MEUzlZL97q4z7wuGD6B6-52">
          <mxGeometry x="207.5" width="90" height="50" as="geometry" />
        </mxCell>
        <mxCell id="MEUzlZL97q4z7wuGD6B6-42" value="" style="endArrow=none;html=1;rounded=0;entryX=0;entryY=0.5;entryDx=0;entryDy=0;exitX=0.75;exitY=0;exitDx=0;exitDy=0;" edge="1" target="MEUzlZL97q4z7wuGD6B6-41" parent="MEUzlZL97q4z7wuGD6B6-52" source="MEUzlZL97q4z7wuGD6B6-4">
          <mxGeometry width="50" height="50" relative="1" as="geometry">
            <mxPoint x="102.5" y="40" as="sourcePoint" />
            <mxPoint x="238.5" y="-45" as="targetPoint" />
          </mxGeometry>
        </mxCell>
        <mxCell id="MEUzlZL97q4z7wuGD6B6-53" value="" style="group" vertex="1" connectable="0" parent="WIyWlLk6GJQsqaUBKTNV-1">
          <mxGeometry x="720" y="70" width="335" height="180" as="geometry" />
        </mxCell>
        <mxCell id="MEUzlZL97q4z7wuGD6B6-2" value="Transaccion" style="rounded=0;whiteSpace=wrap;html=1;" vertex="1" parent="MEUzlZL97q4z7wuGD6B6-53">
          <mxGeometry y="120" width="120" height="60" as="geometry" />
        </mxCell>
        <mxCell id="MEUzlZL97q4z7wuGD6B6-18" value="num de transaccion" style="ellipse;whiteSpace=wrap;html=1;" vertex="1" parent="MEUzlZL97q4z7wuGD6B6-53">
          <mxGeometry y="10" width="90" height="50" as="geometry" />
        </mxCell>
        <mxCell id="MEUzlZL97q4z7wuGD6B6-19" value="fecha" style="ellipse;whiteSpace=wrap;html=1;" vertex="1" parent="MEUzlZL97q4z7wuGD6B6-53">
          <mxGeometry x="120" width="90" height="50" as="geometry" />
        </mxCell>
        <mxCell id="MEUzlZL97q4z7wuGD6B6-20" value="tipo" style="ellipse;whiteSpace=wrap;html=1;" vertex="1" parent="MEUzlZL97q4z7wuGD6B6-53">
          <mxGeometry x="245" y="20" width="90" height="50" as="geometry" />
        </mxCell>
        <mxCell id="MEUzlZL97q4z7wuGD6B6-21" value="cabtudad" style="ellipse;whiteSpace=wrap;html=1;" vertex="1" parent="MEUzlZL97q4z7wuGD6B6-53">
          <mxGeometry x="225" y="110" width="90" height="50" as="geometry" />
        </mxCell>
        <mxCell id="MEUzlZL97q4z7wuGD6B6-26" value="" style="endArrow=none;html=1;rounded=0;exitX=0.25;exitY=0;exitDx=0;exitDy=0;entryX=0.5;entryY=1;entryDx=0;entryDy=0;" edge="1" parent="MEUzlZL97q4z7wuGD6B6-53" source="MEUzlZL97q4z7wuGD6B6-2" target="MEUzlZL97q4z7wuGD6B6-18">
          <mxGeometry width="50" height="50" relative="1" as="geometry">
            <mxPoint x="20" y="120" as="sourcePoint" />
            <mxPoint x="70" y="70" as="targetPoint" />
          </mxGeometry>
        </mxCell>
        <mxCell id="MEUzlZL97q4z7wuGD6B6-27" value="" style="endArrow=none;html=1;rounded=0;exitX=0.5;exitY=0;exitDx=0;exitDy=0;entryX=0;entryY=1;entryDx=0;entryDy=0;" edge="1" parent="MEUzlZL97q4z7wuGD6B6-53" source="MEUzlZL97q4z7wuGD6B6-2" target="MEUzlZL97q4z7wuGD6B6-19">
          <mxGeometry width="50" height="50" relative="1" as="geometry">
            <mxPoint x="40" y="130" as="sourcePoint" />
            <mxPoint x="55" y="70" as="targetPoint" />
          </mxGeometry>
        </mxCell>
        <mxCell id="MEUzlZL97q4z7wuGD6B6-28" value="" style="endArrow=none;html=1;rounded=0;exitX=1;exitY=0;exitDx=0;exitDy=0;entryX=0.013;entryY=0.708;entryDx=0;entryDy=0;entryPerimeter=0;" edge="1" parent="MEUzlZL97q4z7wuGD6B6-53" source="MEUzlZL97q4z7wuGD6B6-2" target="MEUzlZL97q4z7wuGD6B6-20">
          <mxGeometry width="50" height="50" relative="1" as="geometry">
            <mxPoint x="70" y="130" as="sourcePoint" />
            <mxPoint x="143" y="53" as="targetPoint" />
          </mxGeometry>
        </mxCell>
        <mxCell id="MEUzlZL97q4z7wuGD6B6-29" value="" style="endArrow=none;html=1;rounded=0;entryX=0;entryY=0.5;entryDx=0;entryDy=0;exitX=1;exitY=0.5;exitDx=0;exitDy=0;" edge="1" parent="MEUzlZL97q4z7wuGD6B6-53" source="MEUzlZL97q4z7wuGD6B6-2" target="MEUzlZL97q4z7wuGD6B6-21">
          <mxGeometry width="50" height="50" relative="1" as="geometry">
            <mxPoint x="130" y="140" as="sourcePoint" />
            <mxPoint x="256" y="65" as="targetPoint" />
          </mxGeometry>
        </mxCell>
        <mxCell id="MEUzlZL97q4z7wuGD6B6-54" value="" style="group" vertex="1" connectable="0" parent="WIyWlLk6GJQsqaUBKTNV-1">
          <mxGeometry x="70" y="70" width="330" height="240" as="geometry" />
        </mxCell>
        <mxCell id="MEUzlZL97q4z7wuGD6B6-1" value="Cliente" style="rounded=0;whiteSpace=wrap;html=1;" vertex="1" parent="MEUzlZL97q4z7wuGD6B6-54">
          <mxGeometry x="190" y="120" width="120" height="60" as="geometry" />
        </mxCell>
        <mxCell id="MEUzlZL97q4z7wuGD6B6-6" value="nombre" style="ellipse;whiteSpace=wrap;html=1;" vertex="1" parent="MEUzlZL97q4z7wuGD6B6-54">
          <mxGeometry x="120" y="20" width="90" height="50" as="geometry" />
        </mxCell>
        <mxCell id="MEUzlZL97q4z7wuGD6B6-7" value="apellido" style="ellipse;whiteSpace=wrap;html=1;" vertex="1" parent="MEUzlZL97q4z7wuGD6B6-54">
          <mxGeometry x="60" y="110" width="90" height="50" as="geometry" />
        </mxCell>
        <mxCell id="MEUzlZL97q4z7wuGD6B6-8" value="dni" style="ellipse;whiteSpace=wrap;html=1;" vertex="1" parent="MEUzlZL97q4z7wuGD6B6-54">
          <mxGeometry x="70" y="190" width="90" height="50" as="geometry" />
        </mxCell>
        <mxCell id="MEUzlZL97q4z7wuGD6B6-9" value="telefono" style="ellipse;whiteSpace=wrap;html=1;" vertex="1" parent="MEUzlZL97q4z7wuGD6B6-54">
          <mxGeometry x="240" width="90" height="50" as="geometry" />
        </mxCell>
        <mxCell id="MEUzlZL97q4z7wuGD6B6-10" value="ocupacion" style="ellipse;whiteSpace=wrap;html=1;" vertex="1" parent="MEUzlZL97q4z7wuGD6B6-54">
          <mxGeometry width="90" height="50" as="geometry" />
        </mxCell>
        <mxCell id="MEUzlZL97q4z7wuGD6B6-11" value="" style="endArrow=none;html=1;rounded=0;entryX=0.75;entryY=0;entryDx=0;entryDy=0;exitX=0.5;exitY=1;exitDx=0;exitDy=0;" edge="1" parent="MEUzlZL97q4z7wuGD6B6-54" source="MEUzlZL97q4z7wuGD6B6-9" target="MEUzlZL97q4z7wuGD6B6-1">
          <mxGeometry width="50" height="50" relative="1" as="geometry">
            <mxPoint x="480" y="290" as="sourcePoint" />
            <mxPoint x="530" y="240" as="targetPoint" />
          </mxGeometry>
        </mxCell>
        <mxCell id="MEUzlZL97q4z7wuGD6B6-12" value="" style="endArrow=none;html=1;rounded=0;exitX=0.958;exitY=0.753;exitDx=0;exitDy=0;exitPerimeter=0;" edge="1" parent="MEUzlZL97q4z7wuGD6B6-54" source="MEUzlZL97q4z7wuGD6B6-6" target="MEUzlZL97q4z7wuGD6B6-1">
          <mxGeometry width="50" height="50" relative="1" as="geometry">
            <mxPoint x="295" y="60" as="sourcePoint" />
            <mxPoint x="290" y="130" as="targetPoint" />
          </mxGeometry>
        </mxCell>
        <mxCell id="MEUzlZL97q4z7wuGD6B6-13" value="" style="endArrow=none;html=1;rounded=0;entryX=0.25;entryY=0;entryDx=0;entryDy=0;" edge="1" parent="MEUzlZL97q4z7wuGD6B6-54" source="MEUzlZL97q4z7wuGD6B6-10" target="MEUzlZL97q4z7wuGD6B6-1">
          <mxGeometry width="50" height="50" relative="1" as="geometry">
            <mxPoint x="216" y="68" as="sourcePoint" />
            <mxPoint x="246" y="130" as="targetPoint" />
          </mxGeometry>
        </mxCell>
        <mxCell id="MEUzlZL97q4z7wuGD6B6-14" value="" style="endArrow=none;html=1;rounded=0;entryX=0;entryY=0.5;entryDx=0;entryDy=0;" edge="1" parent="MEUzlZL97q4z7wuGD6B6-54" source="MEUzlZL97q4z7wuGD6B6-7" target="MEUzlZL97q4z7wuGD6B6-1">
          <mxGeometry width="50" height="50" relative="1" as="geometry">
            <mxPoint x="87" y="52" as="sourcePoint" />
            <mxPoint x="230" y="130" as="targetPoint" />
          </mxGeometry>
        </mxCell>
        <mxCell id="MEUzlZL97q4z7wuGD6B6-15" value="" style="endArrow=none;html=1;rounded=0;exitX=1;exitY=0;exitDx=0;exitDy=0;entryX=0;entryY=1;entryDx=0;entryDy=0;" edge="1" parent="MEUzlZL97q4z7wuGD6B6-54" source="MEUzlZL97q4z7wuGD6B6-8" target="MEUzlZL97q4z7wuGD6B6-1">
          <mxGeometry width="50" height="50" relative="1" as="geometry">
            <mxPoint x="158" y="152" as="sourcePoint" />
            <mxPoint x="200" y="170" as="targetPoint" />
          </mxGeometry>
        </mxCell>
      </root>
    </mxGraphModel>
  </diagram>
</mxfile>
